#N canvas 1258 349 450 367 10;
#X declare -lib Gem;
#X msg 100 80 destroy;
#X msg 130 130 1;
#X msg 130 150 0;
#X obj 90 180 gemwin;
#X obj 20 -110 declare -lib Gem;
#X text 160 130 turn on;
#X text 160 150 turn off;
#X text 130 110 RENDERING;
#X msg 30 80 create;
#X text 30 60 WINDOW;
#X msg 20 -60 title title;
#X msg 19 -39 dimen 200 300;
#X msg 19 -19 offset 10 100;
#X text 20 -80 pre-configure:;
#X msg 120 -20 fullscreen 1;
#X msg 210 -20 fullscreen 0;
#X connect 0 0 3 0;
#X connect 1 0 3 0;
#X connect 2 0 3 0;
#X connect 8 0 3 0;
#X connect 10 0 3 0;
#X connect 11 0 3 0;
#X connect 12 0 3 0;
