#N canvas 960 74 553 670 10;
#X declare -lib Gem;
#X obj 9 104 gemwin;
#X obj 11 218 gemhead;
#X msg 138 49 destroy;
#X text 119 11 load library;
#X text 56 102 create window;
#X text 62 218 start rendering;
#X obj 11 273 color;
#X msg 277 39 create;
#X msg 18 72 reset \, dimen 640 480 \, create \, 1;
#X obj 160 306 translateXYZ;
#X obj 161 387 cube;
#X obj 213 236 snapshot~;
#X floatatom 213 261 5 0 0 0 - - -, f 5;
#X obj 282 235 snapshot~;
#X floatatom 282 260 5 0 0 0 - - -, f 5;
#X obj 260 170 metro 2;
#X obj 259 150 tgl 15 0 empty empty empty 17 7 0 10 #fcfcfc #000000
#000000 1 1;
#X obj 213 213 osc~ 0.1;
#X obj 283 208 phasor~ 0.2;
#X msg 69 252 125 0 255;
#X msg 9 49 create \, 1 \, frame 30;
#X text 243 305 moving cube;
#N canvas 1439 709 447 320 gemwin 1;
#X obj 132 136 gemwin;
#X obj 67 89 outlet;
#X obj 67 10 inlet;
#X obj 67 41 route create;
#X msg 67 70 set destroy;
#X msg 142 68 set create;
#X msg 198 112 destroy \, reset;
#X msg 132 93 create \, 1 \, frame 20;
#X connect 2 0 3 0;
#X connect 3 0 4 0;
#X connect 3 0 7 0;
#X connect 3 1 5 0;
#X connect 3 1 6 0;
#X connect 4 0 1 0;
#X connect 5 0 1 0;
#X connect 6 0 0 0;
#X connect 7 0 0 0;
#X restore 251 78 pd gemwin (20fps);
#X floatatom 372 231 9 0 0 0 - - -, f 9;
#X obj 372 204 float;
#X obj 178 341 rotate 0 1 0;
#X obj 421 203 + 0.1;
#X obj 197 387 square;
#X obj 246 386 circle;
#X obj 294 387 triangle;
#X obj 354 389 sphere;
#X obj 401 389 cone;
#X text 275 338 BASIC OBJECTS: https://puredata.info/downloads/gem/documentation/manual/manual/basic-objects#gemwin
;
#X obj 14 11 declare -lib Gem;
#X obj 23 484 cnv 15 250 450 empty empty empty 20 12 0 14 #dce4fc #404040
0;
#X obj 168 867 cnv 15 100 60 empty empty empty 20 12 0 14 #bcbcbc #404040
0;
#N canvas 0 50 450 300 gemwin 0;
#X obj 132 136 gemwin;
#X obj 67 89 outlet;
#X obj 67 10 inlet;
#X msg 67 70 set destroy;
#X msg 132 112 create \, 1;
#X msg 198 112 destroy;
#X msg 156 71 set create;
#X obj 67 41 route create;
#X connect 2 0 7 0;
#X connect 3 0 1 0;
#X connect 4 0 0 0;
#X connect 5 0 0 0;
#X connect 6 0 1 0;
#X connect 7 0 3 0;
#X connect 7 0 4 0;
#X connect 7 1 6 0;
#X connect 7 1 5 0;
#X restore 173 906 pd gemwin;
#X msg 173 887 create;
#X text 169 866 Create window:;
#X obj 25 515 cnv 15 175 300 empty empty empty 20 12 0 14 #14e814 #404040
0;
#X obj 25 490 gemhead;
#X obj 25 837 pix_texture;
#X obj 37 517 bng 25 250 50 0 empty empty empty 0 -6 0 8 #fcfcfc #000000
#000000;
#X text 79 484 open a supported;
#X text 80 495 movie-clip;
#X floatatom 40 769 5 0 0 3 length - -, f 5;
#X floatatom 88 769 5 0 0 3 width - -, f 5;
#X floatatom 139 769 5 0 0 3 height - -, f 5;
#X obj 88 708 bng 15 250 50 0 empty empty end_reached 20 7 0 10 #fcfcfc
#000000 #000000;
#X floatatom 78 690 5 0 10000 1 frameNum - -, f 5;
#X obj 37 544 openpanel;
#X msg 37 563 open \$1;
#X obj 25 859 rectangle 4 3;
#X msg 43 601 auto \$1;
#X obj 43 583 tgl 15 0 empty empty empty 0 -6 0 8 #fcfcfc #000000 #000000
1 1;
#X msg 54 620 colorspace Grey;
#N canvas 18 78 928 614 :: 0;
#X text 24 16 the format [pix_film] is able to decode depends on the
system you are running Gem.;
#X text 33 52 basically Gem's decoding capabilities are handled by
plugins. You should see \, which plugins are loaded \, when instantiating
the first [pix_film] object: a line "[pix_film]: foo support" means
\, that the 'foo' plugin has been loaded.;
#X text 453 50 you can add a plugin to your system by simply copying
the plugin-binary called "gem_filmNAME.dll" (or gem_filmNAME.so if
you are on a unix-like system) into your Gem-directory (where you find
the Gem-binary \, e.g. Gem.dll);
#X text 456 103 if you want to remove a plugin (e.g. because you are
not satisfied with the decoding quality of because it is unstable)
\, you can simply remove the corresponding gem_filmNAME.dll file from
your Gem-directory.;
#X text 35 123 which media can be decoded \, depends on the installed
plugins and on the codecs you have installed on your system.;
#X obj 45 248 cnv 15 200 15 empty empty empty 20 12 0 14 #c4c4fc #404040
0;
#X obj 45 303 cnv 15 200 15 empty empty empty 20 12 0 14 #c4c4fc #404040
0;
#X obj 445 248 cnv 15 200 15 empty empty empty 20 12 0 14 #c4c4fc #404040
0;
#X text 449 249 Gmerlin (gem_filmGMERLIN);
#X text 49 249 QuickTime (gem_filmQT);
#X text 73 262 available on OS-X (PPC and i386 \, but not 64bit!) and
W32;
#X text 73 277 should be able to decode any QuickTime MOV \, and probably
a lot more;
#X text 49 304 DirectShow (gem_filmDS);
#X text 73 317 available on W32;
#X text 73 331 should be able to decode anything for which you have
a DirectShow filter installed;
#X text 50 365 AVI (gem_filmAVI);
#X text 73 380 available on W32;
#X text 73 394 this uses the old (pre-XP) W32-API for decoding movies.
Support for newer codecs is probably limited;
#X text 50 424 AVIPLAY (gem_filmAVIPLAY);
#X text 73 439 available on linux;
#X text 74 452 uses the meta-framework "avifile" to decode movies \,
which itself has a plugin system to use ffmpeg \, vorbis \, w32-dlls
\, ... to decode videos;
#X text 73 507 available on linux;
#X text 50 494 quicktime4linux (gem_filmQT4L);
#X text 73 522 uses libquicktime/lqt for decoding;
#X text 473 262 available on linux (probably also on OSX and W32);
#X text 473 277 uses Gmerlin-avdecoder to decode lots of formats;
#X text 449 304 MPEG3 (gem_filmMPEG3);
#X text 473 317 available on linux;
#X text 473 331 should be able to decode various MPEG-formats (e.g.
MPEG-2-Video and MPEG-2-transportstreams);
#X text 473 380 available on linux;
#X text 473 394 uses an old \, buggy (and no longer developed) library
to decode MPEG-streams;
#X text 450 365 MPEG (gem_filmMPEG1);
#X text 450 424 Darwin (gem_filmDarwin);
#X text 473 439 available on OS-X;
#X text 450 484 test (gem_TEST);
#X text 473 497 available on ALL platforms;
#X text 473 512 outputs test images rather than decoding real media
files;
#X text 270 194 available film decoding plugins;
#X text 260 210 (recommended plugins are highlighted);
#X text 474 452 an alternative implementation of the QuickTime plugin
for OS-X only;
#X restore 29 911 pd :: FORMATS;
#X obj 47 732 unpack 0 0 0 0;
#X floatatom 155 733 5 0 0 3 fps - -, f 5;
#X obj 25 708 pix_film;
#X msg 63 664 bang;
#X msg 60 639 loader foo;
#X text 22 458 load a video:;
#X obj 10 192 tgl 15 0 empty empty empty 17 7 0 10 #fcfcfc #000000
#000000 0 1;
#X text 30 190 OBJECT 1;
#X connect 1 0 9 0;
#X connect 2 0 0 0;
#X connect 7 0 22 0;
#X connect 8 0 0 0;
#X connect 9 0 25 0;
#X connect 11 0 12 0;
#X connect 12 0 9 1;
#X connect 13 0 14 0;
#X connect 14 0 9 2;
#X connect 15 0 13 0;
#X connect 15 0 11 0;
#X connect 15 0 24 0;
#X connect 16 0 15 0;
#X connect 17 0 11 0;
#X connect 18 0 13 0;
#X connect 19 0 6 1;
#X connect 20 0 0 0;
#X connect 22 0 7 0;
#X connect 23 0 25 1;
#X connect 24 0 23 0;
#X connect 24 0 26 0;
#X connect 25 0 10 0;
#X connect 26 0 24 1;
#X connect 36 0 37 0;
#X connect 37 0 36 0;
#X connect 40 0 59 0;
#X connect 41 0 52 0;
#X connect 42 0 50 0;
#X connect 49 0 59 1;
#X connect 50 0 51 0;
#X connect 51 0 59 0;
#X connect 53 0 59 0;
#X connect 54 0 53 0;
#X connect 55 0 59 0;
#X connect 57 0 45 0;
#X connect 57 1 46 0;
#X connect 57 2 47 0;
#X connect 57 3 58 0;
#X connect 59 0 41 0;
#X connect 59 1 57 0;
#X connect 59 2 48 0;
#X connect 60 0 59 0;
#X connect 61 0 59 0;
#X connect 63 0 1 0;
