#N canvas 960 37 960 1018 10;
#X obj 10 7 tgl 15 0 empty empty empty 17 7 0 10 #fcfcfc #000000 #000000
1 1;
#X msg 10 30 \; pd dsp \$1;
#X obj 260 20 bng 15 250 50 0 empty empty empty 17 7 0 10 #fcfcfc #000000
#000000;
#X obj 260 43 openpanel;
#X obj 260 93 soundfiler;
#X floatatom 340 120 14 0 0 0 - - -, f 14;
#X obj 340 144 s sampleSize;
#X obj 260 170 expr 44100 / $f1;
#X floatatom 300 200 12 0 0 0 - - -, f 12;
#X obj 260 255 phasor~;
#X obj 260 300 *~;
#X obj 310 255 r sampleSize;
#X obj 260 455 tabread4~ channelL;
#X obj 290 485 tabread4~ channelR;
#X obj 290 510 *~;
#X obj 260 480 *~;
#X obj 440 460 vsl 15 128 0 1 0 0 empty empty volume 0 -9 0 10 #fcfcfc
#000000 #000000 6350 1;
#X obj 420 270 tgl 15 0 empty empty empty 17 7 0 10 #fcfcfc #000000
#000000 1 1;
#X obj 420 293 metro 50;
#X obj 420 318 snapshot~;
#X floatatom 420 343 5 0 0 0 - - -, f 5;
#X obj 420 367 /;
#X floatatom 420 392 5 0 0 0 - - -, f 5;
#X obj 485 368 r sampleSize;
#N canvas 0 0 450 300 (subpatch) 0;
#X array channelL 1.3962e+07 float 4 black black;
#X coords 0 1 1.3962e+07 -1 200 140 1;
#X restore 610 20 graph;
#N canvas 0 0 450 300 (subpatch) 0;
#X array channelR 1.3962e+07 float 2 black black;
#X coords 0 1 1.3962e+07 -1 200 140 1;
#X restore 610 190 graph;
#X text 470 150 Playback speed;
#X obj 470 210 hsl 128 15 -0.1 0.1 0 0 empty empty empty -2 -8 0 10
#fcfcfc #000000 #000000 6551 1;
#X floatatom 470 233 15 0 0 0 - - -, f 15;
#X obj 240 570 dac~ 1 2;
#X obj 610 350 hsl 195 15 0 1 0 0 empty empty empty -2 -8 0 10 #fcfcfc
#000000 #000000 14805 1;
#X obj 190 70 print file;
#X text -50 90 from the example https://www.youtube.com/watch?v=boX0v54SqtU&t=819s
;
#X msg 260 68 read -resize \$1 channelL channelR;
#X obj 98 659 set;
#X obj 74 692 symbol;
#X msg 190 700 set \$1;
#X symbolatom 190 725 10 0 0 0 - - -, f 10;
#X obj 510 440 initbang;
#X msg 510 465 0.5;
#X connect 0 0 1 0;
#X connect 2 0 3 0;
#X connect 3 0 33 0;
#X connect 3 0 31 0;
#X connect 4 0 5 0;
#X connect 4 0 7 0;
#X connect 5 0 6 0;
#X connect 7 0 8 0;
#X connect 7 0 9 0;
#X connect 8 0 27 0;
#X connect 8 0 36 0;
#X connect 9 0 10 0;
#X connect 10 0 12 0;
#X connect 10 0 13 0;
#X connect 10 0 19 0;
#X connect 11 0 10 1;
#X connect 12 0 15 0;
#X connect 13 0 14 0;
#X connect 14 0 29 1;
#X connect 15 0 29 0;
#X connect 16 0 14 1;
#X connect 16 0 15 1;
#X connect 17 0 18 0;
#X connect 18 0 19 0;
#X connect 19 0 20 0;
#X connect 20 0 21 0;
#X connect 21 0 22 0;
#X connect 22 0 30 0;
#X connect 23 0 21 1;
#X connect 27 0 28 0;
#X connect 28 0 9 0;
#X connect 33 0 4 0;
#X connect 36 0 37 0;
#X connect 38 0 39 0;
#X connect 39 0 16 0;
