#N canvas 894 259 1017 667 10;
#X obj 145 96 adc~;
#X obj 105 131 env~;
#X floatatom 105 156 5 0 0 0 - - -, f 5;
#X obj 105 240 vu 15 120 empty empty -1 -8 0 10 #404040 #000000 1 0
;
#X floatatom 105 205 5 0 0 0 - - -, f 5;
#X obj 105 180 - 100;
#X obj 190 140 bng 15 250 50 0 empty empty empty 17 7 0 10 #fcfcfc
#000000 #000000;
#X obj 150 160 print~ fft;
#X msg 653 126 create;
#X obj 653 151 gemwin;
#X msg 710 130 destroy;
#X obj 270 130 env~;
#X floatatom 270 155 5 0 0 0 - - -, f 5;
#X obj 270 239 vu 15 120 empty empty -1 -8 0 10 #404040 #000000 1 0
;
#X floatatom 270 204 5 0 0 0 - - -, f 5;
#X obj 270 179 - 100;
#X obj 380 290 bng 15 250 50 0 empty empty empty 17 7 0 10 #fcfcfc
#000000 #000000;
#X obj 340 310 print~ fft;
#X obj 20 30 import Gem;
#X obj 322 136 rfft~;
#X obj 152 136 rfft~;
#X obj 370 171 *~;
#X obj 400 171 *~;
#X obj 380 210 +~;
#X obj 380 235 sqrt~;
#X obj 430 217 tgl 15 0 empty empty empty 17 7 0 10 #fcfcfc #000000
#000000 1 1;
#X obj 430 240 metro 100;
#X obj 360 270 tabwrite~ magnitude;
#N canvas 0 0 450 300 (subpatch) 0;
#X array magnitude 64 float 7 black black;
#A 0 0.865812 0.0469175 0.0799312 0.0884231 0.05156 0.0341473 0.0269455
0.0749682 0.00352918 0.01762 0.0391798 0.0210356 0.00585602 0.0122387
0.023259 0.0281099 0.0330769 0.0191516 0.00932263 0.0229447 0.0849746
0.0187053 0.0276989 0.0367225 0.0297419 0.00702417 0.0207101 0.00156919
0.0287134 0.0803226 0.0522327 0.00898371 0.0240136 0 0 0 0 0 0 0 0
0 0 0 0 0 0 0 0 0 0 0 0 0 0 0 0 0 0 0 0 0 0 0;
#X coords 0 1 64 0 200 140 1;
#X restore 510 240 graph;
#X connect 0 0 1 0;
#X connect 0 0 20 0;
#X connect 0 1 11 0;
#X connect 0 1 19 0;
#X connect 1 0 2 0;
#X connect 2 0 5 0;
#X connect 4 0 3 0;
#X connect 5 0 4 0;
#X connect 6 0 7 0;
#X connect 8 0 9 0;
#X connect 10 0 9 0;
#X connect 11 0 12 0;
#X connect 12 0 15 0;
#X connect 14 0 13 0;
#X connect 15 0 14 0;
#X connect 16 0 17 0;
#X connect 19 0 17 0;
#X connect 19 0 21 0;
#X connect 19 0 21 1;
#X connect 19 0 22 0;
#X connect 19 0 22 1;
#X connect 20 0 7 0;
#X connect 21 0 23 0;
#X connect 22 0 23 1;
#X connect 23 0 24 0;
#X connect 24 0 27 0;
#X connect 25 0 26 0;
#X connect 26 0 27 0;
