#N canvas 872 169 956 737 12;
#X obj 50 -50 import mrpeach;
#X msg 50 -10 connect localhost 9001;
#X msg 130 20 disconnect;
#X floatatom 130 50 5 0 0 0 - - -, f 5;
#X obj 130 139 packOSC;
#X obj 50 180 udpsend;
#X obj 300 -19 ctlin;
#X floatatom 300 10 5 0 0 0 - - -, f 5;
#X floatatom 340 10 5 0 0 0 - - -, f 5;
#X floatatom 380 10 5 0 0 0 - - -, f 5;
#X obj 300 50 pack;
#X obj 169 180 print osc;
#X obj 300 79 print midi;
#X msg 130 80 send /midi/value/ \$1;
#X msg 140 110 send /midi/channel/ \$1;
#X connect 1 0 5 0;
#X connect 2 0 5 0;
#X connect 3 0 13 0;
#X connect 4 0 5 0;
#X connect 6 0 7 0;
#X connect 6 1 8 0;
#X connect 6 2 9 0;
#X connect 7 0 10 0;
#X connect 7 0 13 0;
#X connect 8 0 10 1;
#X connect 8 0 14 0;
#X connect 10 0 12 0;
#X connect 13 0 4 0;
#X connect 13 0 11 0;
#X connect 14 0 4 0;
#X connect 14 0 11 0;
