#N canvas 1329 340 450 571 12;
#X obj 90 100 readsf~ 2;
#X msg 130 50 start;
#X msg 140 70 stop;
#X obj 130 460 *~ 0.1;
#X obj 190 540 dac~;
#X obj 220 40 t b b;
#X obj 280 460 *~ 0.1;
#X obj 90 160 sigmund~ -npeak 10 peaks;
#X obj 90 189 route 0 1 2 3 4 5 6 7 8 9;
#X obj 90 218 unpack 0 0 0 0;
#X floatatom 90 247 5 0 0 0 - - -, f 5;
#X floatatom 120 270 5 0 0 0 - - -, f 5;
#X floatatom 150 300 5 0 0 0 - - -, f 5;
#X floatatom 180 330 5 0 0 0 - - -, f 5;
#X obj 260 250 unpack 0 0 0 0;
#X floatatom 260 279 5 0 0 0 - - -, f 5;
#X floatatom 290 302 5 0 0 0 - - -, f 5;
#X floatatom 320 332 5 0 0 0 - - -, f 5;
#X floatatom 350 362 5 0 0 0 - - -, f 5;
#X obj 43 320 * 200;
#X obj 43 349 osc~;
#X obj 90 330 * 200;
#X obj 90 359 osc~;
#X obj 130 340 * 200;
#X obj 130 369 osc~;
#X obj 180 370 * 200;
#X obj 180 399 osc~;
#X obj 340 390 * 200;
#X obj 340 419 osc~;
#X obj 300 360 * 200;
#X obj 300 389 osc~;
#X obj 260 330 * 200;
#X obj 260 359 osc~;
#X obj 224 308 * 200;
#X obj 224 337 osc~;
#X obj 100 510 spigot~;
#X obj 269 512 spigot~;
#X obj 198 485 tgl 20 0 empty empty signal 17 7 0 10 #0099ff #000000
#000000 0 1;
#X obj 225 10 bng 20 250 50 0 empty empty start 17 7 0 10 #57ea5a #000000
#000000;
#X msg 87 25 open file.wav;
#X connect 0 0 7 0;
#X connect 0 2 5 0;
#X connect 1 0 0 0;
#X connect 2 0 0 0;
#X connect 3 0 35 0;
#X connect 5 0 1 0;
#X connect 5 1 39 0;
#X connect 6 0 36 0;
#X connect 7 0 8 0;
#X connect 8 0 9 0;
#X connect 8 9 14 0;
#X connect 9 0 10 0;
#X connect 9 1 11 0;
#X connect 9 2 12 0;
#X connect 9 3 13 0;
#X connect 10 0 19 0;
#X connect 11 0 21 0;
#X connect 12 0 23 0;
#X connect 13 0 25 0;
#X connect 14 0 15 0;
#X connect 14 1 16 0;
#X connect 14 2 17 0;
#X connect 14 3 18 0;
#X connect 15 0 33 0;
#X connect 16 0 31 0;
#X connect 17 0 29 0;
#X connect 18 0 27 0;
#X connect 19 0 20 0;
#X connect 20 0 3 0;
#X connect 21 0 22 0;
#X connect 22 0 3 0;
#X connect 23 0 24 0;
#X connect 24 0 3 0;
#X connect 25 0 26 0;
#X connect 26 0 3 0;
#X connect 27 0 28 0;
#X connect 28 0 6 0;
#X connect 29 0 30 0;
#X connect 30 0 6 0;
#X connect 31 0 32 0;
#X connect 32 0 6 0;
#X connect 33 0 34 0;
#X connect 34 0 6 0;
#X connect 35 1 4 0;
#X connect 36 1 4 1;
#X connect 37 0 35 1;
#X connect 37 0 36 1;
#X connect 38 0 5 0;
#X connect 39 0 0 0;
