#N canvas 1280 253 655 518 12;
#X obj 280 20 table sampler 144000;
#X obj 70 130 adc~;
#X obj 31 200 tabwrite~ sampler;
#X floatatom 187 60 5 0 0 0 - - -, f 5;
#X obj 187 91 sel 1 0;
#X obj 187 120 bng 15 250 50 0 empty empty empty 17 7 0 10 #fcfcfc
#000000 #000000;
#X obj 211 120 bng 15 250 50 0 empty empty empty 17 7 0 10 #fcfcfc
#000000 #000000;
#X obj 187 29 tgl 15 0 empty empty empty 17 7 0 10 #fcfcfc #000000
#000000 0 1;
#X msg 192 154 stop;
#X obj 410 380 tabread~ sampler;
#X obj 410 460 dac~;
#X obj 350 310 phasor~;
#X obj 258 159 timer;
#X obj 320 213 t b f f;
#X obj 408 345 *~ 1;
#X obj 460 264 * 48;
#X text 300 160 diff in ms --> length of sample;
#X msg 323 248 1000;
#X obj 323 277 /;
#X text 430 240 duration of sample;
#X text 350 280 sr of phasor;
#X text 497 263 kHz;
#X floatatom 258 188 5 0 0 0 - - -, f 5;
#X obj 20 130 inlet~;
#X obj 186 4 inlet;
#X obj 410 416 spigot~;
#X obj 238 62 s recording_\$0;
#X obj 540 410 r recording_\$0;
#X obj 500 10 import mrpeach;
#X connect 1 0 2 0;
#X connect 1 1 2 0;
#X connect 3 0 4 0;
#X connect 4 0 5 0;
#X connect 4 1 6 0;
#X connect 5 0 2 0;
#X connect 5 0 12 0;
#X connect 6 0 8 0;
#X connect 6 0 12 1;
#X connect 7 0 3 0;
#X connect 7 0 26 0;
#X connect 8 0 2 0;
#X connect 11 0 14 0;
#X connect 12 0 13 0;
#X connect 12 0 22 0;
#X connect 13 0 17 0;
#X connect 13 1 18 1;
#X connect 13 2 15 0;
#X connect 14 0 9 0;
#X connect 15 0 14 1;
#X connect 17 0 18 0;
#X connect 18 0 11 0;
#X connect 23 0 2 0;
#X connect 24 0 7 0;
#X connect 25 0 10 0;
#X connect 25 0 10 1;
#X connect 27 0 25 1;
