#N canvas 1280 151 792 709 10;
#X obj 590 230 cnv 15 128 200 empty empty empty 20 12 0 14 #e0e0e0
#404040 0;
#X msg 50 50 read -resize /home/dav/2022_Projekte/klingeltoene/211016ORG0.wav
file1;
#X obj 50 88 soundfiler;
#N canvas 0 0 450 300 (subpatch) 0;
#X array file1 5.82682e+06 float 0 black black;
#X coords 0 1 5.82682e+06 -1 200 100 1;
#X restore 160 100 graph;
#X obj 49 138 bng 15 250 50 0 empty empty empty 17 7 0 10 #fcfcfc #000000
#000000;
#X obj 49 161 tabplay~ file1;
#X obj 49 186 dac~;
#X obj 50 318 soundfiler;
#N canvas 0 0 450 300 (subpatch) 0;
#X array file2 364032 float 0 black black;
#X coords 0 1 364031 -1 200 100 1;
#X restore 160 330 graph;
#X obj 49 368 bng 15 250 50 0 empty empty empty 17 7 0 10 #fcfcfc #000000
#000000;
#X obj 49 391 tabplay~ file1;
#X obj 49 416 dac~;
#X msg 50 280 read -resize /home/dav/2022_Projekte/klingeltoene/XYLO29-000.wav
file2;
#X text 450 20 1 load soundfile to array ✓ 2 playback soundfile
using tabplay~ ✓ 3 set start- and endpoint of sample;
#X obj 600 280 osc~ 200;
#X obj 600 305 *~;
#X obj 600 330 dac~;
#X obj 682 279 vsl 15 128 0 1 0 0 empty empty empty 0 -9 0 10 #fcfcfc
#000000 #000000 0 1;
#X text 600 240 TEST AUDIO;
#X obj 50 470 bng 15 250 50 0 empty empty empty 17 7 0 10 #fcfcfc #000000
#000000;
#X obj 50 493 openpanel;
#X msg 50 518 read -resize \$1 file3;
#X obj 50 543 soundfiler;
#N canvas 0 0 450 300 (subpatch) 0;
#X array file3 364032 float 0 black black;
#X coords 0 1 364031 -1 200 100 1;
#X restore 190 480 graph;
#X connect 1 0 2 0;
#X connect 4 0 5 0;
#X connect 5 0 6 0;
#X connect 9 0 10 0;
#X connect 10 0 11 0;
#X connect 12 0 7 0;
#X connect 14 0 15 0;
#X connect 15 0 16 0;
#X connect 17 0 15 1;
#X connect 19 0 20 0;
#X connect 20 0 21 0;
#X connect 21 0 22 0;
