#N canvas 480 37 960 994 12;
#X obj 10 300 cnv 15 193 132 empty empty empty 20 12 0 14 #e0e0e0 #404040
0;
#N canvas 736 361 450 325 osc 0;
#X obj 120 20 inlet;
#X obj 70 111 osc~;
#X obj 70 180 *~;
#X obj 125 114 inlet;
#X obj 70 209 outlet~;
#X text 160 20 frequency;
#X text 169 113 loudness;
#X obj 120 49 mtof;
#X floatatom 120 78 5 0 0 0 - - -, f 5;
#X obj 125 143 / 127;
#X floatatom 125 172 5 0 0 0 - - -, f 5;
#X connect 0 0 7 0;
#X connect 1 0 2 0;
#X connect 2 0 4 0;
#X connect 3 0 9 0;
#X connect 7 0 8 0;
#X connect 8 0 1 0;
#X connect 9 0 10 0;
#X connect 10 0 2 1;
#X restore 20 370 pd osc;
#X obj 30 330 r channel_0;
#X obj 20 300 r channel_16;
#X obj 420 740 dac~;
#X obj 20 400 s~ dac1;
#X obj 203 659 r~ dac1;
#X obj 263 659 r~ dac2;
#X obj 323 659 r~ dac3;
#X obj 383 659 r~ dac4;
#X obj 443 659 r~ dac5;
#X obj 503 659 r~ dac6;
#X obj 563 659 r~ dac7;
#X obj 620 660 r~ dac8;
#X text 120 330 loudness;
#X text 110 300 frequency;
#X obj 210 300 cnv 15 193 132 empty empty empty 20 12 0 14 #e0e0e0
#404040 0;
#N canvas 736 361 450 325 osc 0;
#X obj 120 20 inlet;
#X obj 70 111 osc~;
#X obj 70 180 *~;
#X obj 125 114 inlet;
#X obj 70 209 outlet~;
#X text 160 20 frequency;
#X text 169 113 loudness;
#X obj 120 49 mtof;
#X floatatom 120 78 5 0 0 0 - - -, f 5;
#X obj 125 143 / 127;
#X floatatom 125 172 5 0 0 0 - - -, f 5;
#X connect 0 0 7 0;
#X connect 1 0 2 0;
#X connect 2 0 4 0;
#X connect 3 0 9 0;
#X connect 7 0 8 0;
#X connect 8 0 1 0;
#X connect 9 0 10 0;
#X connect 10 0 2 1;
#X restore 220 370 pd osc;
#X text 320 330 loudness;
#X text 310 300 frequency;
#X obj 220 300 r channel_17;
#X obj 230 330 r channel_1;
#X obj 220 400 s~ dac2;
#X obj 410 300 cnv 15 193 132 empty empty empty 20 12 0 14 #e0e0e0
#404040 0;
#N canvas 736 361 450 325 osc 0;
#X obj 120 20 inlet;
#X obj 70 111 osc~;
#X obj 70 180 *~;
#X obj 125 114 inlet;
#X obj 70 209 outlet~;
#X text 160 20 frequency;
#X text 169 113 loudness;
#X obj 120 49 mtof;
#X floatatom 120 78 5 0 0 0 - - -, f 5;
#X obj 125 143 / 127;
#X floatatom 125 172 5 0 0 0 - - -, f 5;
#X connect 0 0 7 0;
#X connect 1 0 2 0;
#X connect 2 0 4 0;
#X connect 3 0 9 0;
#X connect 7 0 8 0;
#X connect 8 0 1 0;
#X connect 9 0 10 0;
#X connect 10 0 2 1;
#X restore 420 370 pd osc;
#X text 520 330 loudness;
#X text 510 300 frequency;
#X obj 610 300 cnv 15 193 132 empty empty empty 20 12 0 14 #e0e0e0
#404040 0;
#N canvas 736 361 450 325 osc 0;
#X obj 120 20 inlet;
#X obj 70 111 osc~;
#X obj 70 180 *~;
#X obj 125 114 inlet;
#X obj 70 209 outlet~;
#X text 160 20 frequency;
#X text 169 113 loudness;
#X obj 120 49 mtof;
#X floatatom 120 78 5 0 0 0 - - -, f 5;
#X obj 125 143 / 127;
#X floatatom 125 172 5 0 0 0 - - -, f 5;
#X connect 0 0 7 0;
#X connect 1 0 2 0;
#X connect 2 0 4 0;
#X connect 3 0 9 0;
#X connect 7 0 8 0;
#X connect 8 0 1 0;
#X connect 9 0 10 0;
#X connect 10 0 2 1;
#X restore 620 370 pd osc;
#X text 720 330 loudness;
#X text 710 300 frequency;
#X obj 420 300 r channel_18;
#X obj 430 330 r channel_2;
#X obj 420 400 s~ dac3;
#X obj 620 300 r channel_19;
#X obj 630 330 r channel_3;
#X obj 620 400 s~ dac4;
#X obj 10 440 cnv 15 193 132 empty empty empty 20 12 0 14 #e0e0e0 #404040
0;
#N canvas 736 361 450 325 osc 0;
#X obj 120 20 inlet;
#X obj 70 111 osc~;
#X obj 70 180 *~;
#X obj 125 114 inlet;
#X obj 70 209 outlet~;
#X text 160 20 frequency;
#X text 169 113 loudness;
#X obj 120 49 mtof;
#X floatatom 120 78 5 0 0 0 - - -, f 5;
#X obj 125 143 / 127;
#X floatatom 125 172 5 0 0 0 - - -, f 5;
#X connect 0 0 7 0;
#X connect 1 0 2 0;
#X connect 2 0 4 0;
#X connect 3 0 9 0;
#X connect 7 0 8 0;
#X connect 8 0 1 0;
#X connect 9 0 10 0;
#X connect 10 0 2 1;
#X restore 20 510 pd osc;
#X text 120 470 loudness;
#X text 110 440 frequency;
#X obj 210 440 cnv 15 193 132 empty empty empty 20 12 0 14 #e0e0e0
#404040 0;
#N canvas 736 361 450 325 osc 0;
#X obj 120 20 inlet;
#X obj 70 111 osc~;
#X obj 70 180 *~;
#X obj 125 114 inlet;
#X obj 70 209 outlet~;
#X text 160 20 frequency;
#X text 169 113 loudness;
#X obj 120 49 mtof;
#X floatatom 120 78 5 0 0 0 - - -, f 5;
#X obj 125 143 / 127;
#X floatatom 125 172 5 0 0 0 - - -, f 5;
#X connect 0 0 7 0;
#X connect 1 0 2 0;
#X connect 2 0 4 0;
#X connect 3 0 9 0;
#X connect 7 0 8 0;
#X connect 8 0 1 0;
#X connect 9 0 10 0;
#X connect 10 0 2 1;
#X restore 220 510 pd osc;
#X text 320 470 loudness;
#X text 310 440 frequency;
#X obj 410 440 cnv 15 193 132 empty empty empty 20 12 0 14 #e0e0e0
#404040 0;
#N canvas 736 361 450 325 osc 0;
#X obj 120 20 inlet;
#X obj 70 111 osc~;
#X obj 70 180 *~;
#X obj 125 114 inlet;
#X obj 70 209 outlet~;
#X text 160 20 frequency;
#X text 169 113 loudness;
#X obj 120 49 mtof;
#X floatatom 120 78 5 0 0 0 - - -, f 5;
#X obj 125 143 / 127;
#X floatatom 125 172 5 0 0 0 - - -, f 5;
#X connect 0 0 7 0;
#X connect 1 0 2 0;
#X connect 2 0 4 0;
#X connect 3 0 9 0;
#X connect 7 0 8 0;
#X connect 8 0 1 0;
#X connect 9 0 10 0;
#X connect 10 0 2 1;
#X restore 420 510 pd osc;
#X text 520 470 loudness;
#X text 510 440 frequency;
#X obj 610 440 cnv 15 193 132 empty empty empty 20 12 0 14 #e0e0e0
#404040 0;
#N canvas 736 361 450 325 osc 0;
#X obj 120 20 inlet;
#X obj 70 111 osc~;
#X obj 70 180 *~;
#X obj 125 114 inlet;
#X obj 70 209 outlet~;
#X text 160 20 frequency;
#X text 169 113 loudness;
#X obj 120 49 mtof;
#X floatatom 120 78 5 0 0 0 - - -, f 5;
#X obj 125 143 / 127;
#X floatatom 125 172 5 0 0 0 - - -, f 5;
#X connect 0 0 7 0;
#X connect 1 0 2 0;
#X connect 2 0 4 0;
#X connect 3 0 9 0;
#X connect 7 0 8 0;
#X connect 8 0 1 0;
#X connect 9 0 10 0;
#X connect 10 0 2 1;
#X restore 620 510 pd osc;
#X text 720 470 loudness;
#X text 710 440 frequency;
#X obj 20 440 r channel_20;
#X obj 220 440 r channel_21;
#X obj 420 440 r channel_22;
#X obj 620 440 r channel_23;
#X obj 30 470 r channel_4;
#X obj 230 470 r channel_5;
#X obj 430 470 r channel_6;
#X obj 630 470 r channel_7;
#X obj 20 540 s~ dac5;
#X obj 220 540 s~ dac6;
#X obj 420 540 s~ dac7;
#X obj 620 540 s~ dac8;
#X text 10 10 8 oscillators controllable by KORG nanokontrol: knobs
1-8 set the frequency faders 1-8 set the loudness of each channel
dunland \, 2022-07-28;
#X obj 350 732 env~;
#X obj 350 820 vu 15 120 empty empty -1 -8 0 10 #404040 #000000 1 0
;
#X obj 350 761 - 100;
#X obj 138 178 nanokontrol-send;
#X connect 1 0 5 0;
#X connect 2 0 1 1;
#X connect 3 0 1 0;
#X connect 6 0 4 1;
#X connect 6 0 4 0;
#X connect 6 0 66 0;
#X connect 7 0 4 1;
#X connect 7 0 4 0;
#X connect 7 0 66 0;
#X connect 8 0 4 1;
#X connect 8 0 4 0;
#X connect 8 0 66 0;
#X connect 9 0 4 1;
#X connect 9 0 4 0;
#X connect 9 0 66 0;
#X connect 10 0 4 1;
#X connect 10 0 4 0;
#X connect 10 0 66 0;
#X connect 11 0 4 1;
#X connect 11 0 4 0;
#X connect 11 0 66 0;
#X connect 12 0 4 1;
#X connect 12 0 4 0;
#X connect 12 0 66 0;
#X connect 13 0 4 1;
#X connect 13 0 4 0;
#X connect 13 0 66 0;
#X connect 17 0 22 0;
#X connect 20 0 17 0;
#X connect 21 0 17 1;
#X connect 24 0 33 0;
#X connect 28 0 36 0;
#X connect 31 0 24 0;
#X connect 32 0 24 1;
#X connect 34 0 28 0;
#X connect 35 0 28 1;
#X connect 38 0 61 0;
#X connect 42 0 62 0;
#X connect 46 0 63 0;
#X connect 50 0 64 0;
#X connect 53 0 38 0;
#X connect 54 0 42 0;
#X connect 55 0 46 0;
#X connect 56 0 50 0;
#X connect 57 0 38 1;
#X connect 58 0 42 1;
#X connect 59 0 46 1;
#X connect 60 0 50 1;
#X connect 66 0 68 0;
#X connect 68 0 67 0;
