#N canvas 735 402 450 300 12;
#X obj 98 -73 ctlin;
#X floatatom 48 -10 5 0 0 0 - - -, f 5;
#X text 92 -13 value;
#X floatatom 162 -7 5 0 0 0 - - -, f 5;
#X text 202 -7 channel;
#X text 142 -77 nanokontrol;
#X obj 72 73 send \$1;
#X obj 162 50 print;
#X msg 162 21 symbol channel_\$1;
#X connect 0 0 1 0;
#X connect 0 1 3 0;
#X connect 1 0 6 0;
#X connect 3 0 8 0;
#X connect 8 0 6 1;
#X connect 8 0 7 0;
