#N canvas 0 37 1920 466 12;
#X obj 0 80 cnv 15 186 322 empty empty empty 20 12 0 14 #e0e0e0 #404040
0;
#X obj 60 40 nanokontrol-send;
#X obj 53 182 sampler;
#X obj 40 130 adc~;
#X obj 53 211 env~;
#X obj 53 240 - 100;
#X obj 53 269 vu 15 120 empty empty -1 -8 0 10 #404040 #000000 1 0
;
#X obj 116 184 tgl 15 0 empty empty empty 17 7 0 10 #fcfcfc #000000
#000000 0 127;
#X obj 76 110 r channel_64;
#X obj 10 210 dac~;
#X obj 99 156 r channel_0;
#X text 99 136 volume:;
#X text 76 88 record:;
#X obj 200 80 cnv 15 186 322 empty empty empty 20 12 0 14 #e0e0e0 #404040
0;
#X obj 253 182 sampler;
#X obj 240 130 adc~;
#X obj 253 211 env~;
#X obj 253 240 - 100;
#X obj 253 269 vu 15 120 empty empty -1 -8 0 10 #404040 #000000 1 0
;
#X obj 316 184 tgl 15 0 empty empty empty 17 7 0 10 #fcfcfc #000000
#000000 0 127;
#X obj 210 210 dac~;
#X text 299 136 volume:;
#X text 276 88 record:;
#X obj 400 80 cnv 15 186 322 empty empty empty 20 12 0 14 #e0e0e0 #404040
0;
#X obj 453 182 sampler;
#X obj 440 130 adc~;
#X obj 453 211 env~;
#X obj 453 240 - 100;
#X obj 453 269 vu 15 120 empty empty -1 -8 0 10 #404040 #000000 1 0
;
#X obj 516 184 tgl 15 0 empty empty empty 17 7 0 10 #fcfcfc #000000
#000000 0 127;
#X obj 410 210 dac~;
#X text 499 136 volume:;
#X text 476 88 record:;
#X obj 600 80 cnv 15 186 322 empty empty empty 20 12 0 14 #e0e0e0 #404040
0;
#X obj 653 182 sampler;
#X obj 640 130 adc~;
#X obj 653 211 env~;
#X obj 653 240 - 100;
#X obj 653 269 vu 15 120 empty empty -1 -8 0 10 #404040 #000000 1 0
;
#X obj 716 184 tgl 15 0 empty empty empty 17 7 0 10 #fcfcfc #000000
#000000 0 127;
#X obj 610 210 dac~;
#X text 699 136 volume:;
#X text 676 88 record:;
#X obj 800 80 cnv 15 186 322 empty empty empty 20 12 0 14 #e0e0e0 #404040
0;
#X obj 853 182 sampler;
#X obj 840 130 adc~;
#X obj 853 211 env~;
#X obj 853 240 - 100;
#X obj 853 269 vu 15 120 empty empty -1 -8 0 10 #404040 #000000 1 0
;
#X obj 916 184 tgl 15 0 empty empty empty 17 7 0 10 #fcfcfc #000000
#000000 0 127;
#X obj 810 210 dac~;
#X text 899 136 volume:;
#X text 876 88 record:;
#X obj 1000 80 cnv 15 186 322 empty empty empty 20 12 0 14 #e0e0e0
#404040 0;
#X obj 1053 182 sampler;
#X obj 1040 130 adc~;
#X obj 1053 211 env~;
#X obj 1053 240 - 100;
#X obj 1053 269 vu 15 120 empty empty -1 -8 0 10 #404040 #000000 1
0;
#X obj 1116 184 tgl 15 0 empty empty empty 17 7 0 10 #fcfcfc #000000
#000000 0 127;
#X obj 1010 210 dac~;
#X text 1099 136 volume:;
#X text 1076 88 record:;
#X obj 1200 80 cnv 15 186 322 empty empty empty 20 12 0 14 #e0e0e0
#404040 0;
#X obj 1253 182 sampler;
#X obj 1240 130 adc~;
#X obj 1253 211 env~;
#X obj 1253 240 - 100;
#X obj 1253 269 vu 15 120 empty empty -1 -8 0 10 #404040 #000000 1
0;
#X obj 1316 184 tgl 15 0 empty empty empty 17 7 0 10 #fcfcfc #000000
#000000 0 127;
#X obj 1210 210 dac~;
#X text 1299 136 volume:;
#X text 1276 88 record:;
#X obj 1400 80 cnv 15 186 322 empty empty empty 20 12 0 14 #e0e0e0
#404040 0;
#X obj 1453 182 sampler;
#X obj 1440 130 adc~;
#X obj 1453 211 env~;
#X obj 1453 240 - 100;
#X obj 1453 269 vu 15 120 empty empty -1 -8 0 10 #404040 #000000 1
0;
#X obj 1516 184 tgl 15 0 empty empty empty 17 7 0 10 #fcfcfc #000000
#000000 0 127;
#X obj 1410 210 dac~;
#X obj 1499 156 r channel_0;
#X text 1499 136 volume:;
#X text 1476 88 record:;
#X obj 276 110 r channel_65;
#X obj 476 110 r channel_66;
#X obj 676 110 r channel_67;
#X obj 880 110 r channel_68;
#X obj 1076 110 r channel_69;
#X obj 1276 110 r channel_70;
#X obj 1476 110 r channel_71;
#X obj 299 156 r channel_1;
#X obj 499 156 r channel_2;
#X obj 699 156 r channel_3;
#X obj 899 156 r channel_4;
#X obj 1099 156 r channel_5;
#X obj 1299 156 r channel_6;
#X connect 2 0 4 0;
#X connect 2 0 9 0;
#X connect 2 0 9 1;
#X connect 2 1 7 0;
#X connect 3 0 2 0;
#X connect 3 1 2 0;
#X connect 4 0 5 0;
#X connect 5 0 6 0;
#X connect 8 0 2 1;
#X connect 10 0 2 2;
#X connect 14 0 16 0;
#X connect 14 0 20 0;
#X connect 14 0 20 1;
#X connect 14 1 19 0;
#X connect 15 0 14 0;
#X connect 15 1 14 0;
#X connect 16 0 17 0;
#X connect 17 0 18 0;
#X connect 24 0 26 0;
#X connect 24 0 30 0;
#X connect 24 0 30 1;
#X connect 24 1 29 0;
#X connect 25 0 24 0;
#X connect 25 1 24 0;
#X connect 26 0 27 0;
#X connect 27 0 28 0;
#X connect 34 0 36 0;
#X connect 34 0 40 0;
#X connect 34 0 40 1;
#X connect 34 1 39 0;
#X connect 35 0 34 0;
#X connect 35 1 34 0;
#X connect 36 0 37 0;
#X connect 37 0 38 0;
#X connect 44 0 46 0;
#X connect 44 0 50 0;
#X connect 44 0 50 1;
#X connect 44 1 49 0;
#X connect 45 0 44 0;
#X connect 45 1 44 0;
#X connect 46 0 47 0;
#X connect 47 0 48 0;
#X connect 54 0 56 0;
#X connect 54 0 60 0;
#X connect 54 0 60 1;
#X connect 54 1 59 0;
#X connect 55 0 54 0;
#X connect 55 1 54 0;
#X connect 56 0 57 0;
#X connect 57 0 58 0;
#X connect 64 0 66 0;
#X connect 64 0 70 0;
#X connect 64 0 70 1;
#X connect 64 1 69 0;
#X connect 65 0 64 0;
#X connect 65 1 64 0;
#X connect 66 0 67 0;
#X connect 67 0 68 0;
#X connect 74 0 76 0;
#X connect 74 0 80 0;
#X connect 74 0 80 1;
#X connect 74 1 79 0;
#X connect 75 0 74 0;
#X connect 75 1 74 0;
#X connect 76 0 77 0;
#X connect 77 0 78 0;
#X connect 81 0 74 2;
#X connect 84 0 14 1;
#X connect 85 0 24 1;
#X connect 86 0 34 1;
#X connect 87 0 44 1;
#X connect 88 0 54 1;
#X connect 89 0 64 1;
#X connect 90 0 74 1;
#X connect 91 0 14 2;
#X connect 92 0 24 2;
#X connect 93 0 34 2;
#X connect 94 0 44 2;
#X connect 95 0 54 2;
#X connect 96 0 64 2;
