#N canvas 312 162 655 590 12;
#X floatatom 187 60 5 0 0 0 - - -, f 5;
#X obj 187 120 bng 15 250 50 0 empty empty empty 17 7 0 10 #fcfcfc
#000000 #000000;
#X obj 211 120 bng 15 250 50 0 empty empty empty 17 7 0 10 #fcfcfc
#000000 #000000;
#X obj 187 29 tgl 15 0 empty empty empty 17 7 0 10 #fcfcfc #000000
#000000 0 127;
#X msg 192 154 stop;
#X obj 350 310 phasor~;
#X obj 258 159 timer;
#X obj 320 213 t b f f;
#X obj 388 345 *~ 1;
#X obj 460 264 * 48;
#X text 300 160 diff in ms --> length of sample;
#X msg 323 248 1000;
#X obj 323 277 /;
#X text 430 240 duration of sample;
#X text 350 280 sr of phasor;
#X text 497 263 kHz;
#X floatatom 258 188 5 0 0 0 - - -, f 5;
#X obj 20 130 inlet~;
#X obj 186 4 inlet;
#X obj 390 506 spigot~;
#X obj 238 62 s recording_\$0;
#X obj 520 470 r recording_\$0;
#X obj 390 535 outlet~;
#X obj 400 63 outlet;
#X obj 520 499 tgl 15 0 empty empty empty 17 7 0 10 #fcfcfc #000000
#000000 0 127;
#X obj 31 200 tabwrite~ sampler_\$0;
#X obj 280 20 table sampler_\$0 144000;
#X obj 390 380 tabread~ sampler_\$0;
#X obj 187 91 sel 127 0;
#X obj 390 480 *~;
#X obj 440 420 inlet;
#X obj 440 449 / 127;
#X text 480 420 volume;
#X connect 0 0 28 0;
#X connect 1 0 6 0;
#X connect 1 0 25 0;
#X connect 2 0 4 0;
#X connect 2 0 6 1;
#X connect 3 0 0 0;
#X connect 3 0 20 0;
#X connect 3 0 23 0;
#X connect 4 0 25 0;
#X connect 5 0 8 0;
#X connect 6 0 7 0;
#X connect 6 0 16 0;
#X connect 7 0 11 0;
#X connect 7 1 12 1;
#X connect 7 2 9 0;
#X connect 8 0 27 0;
#X connect 9 0 8 1;
#X connect 11 0 12 0;
#X connect 12 0 5 0;
#X connect 17 0 25 0;
#X connect 18 0 3 0;
#X connect 19 0 22 0;
#X connect 21 0 19 1;
#X connect 21 0 24 0;
#X connect 27 0 29 0;
#X connect 28 0 1 0;
#X connect 28 1 2 0;
#X connect 29 0 19 0;
#X connect 30 0 31 0;
#X connect 31 0 29 1;
