#N canvas 776 374 484 330 12;
#X text 212 83 filename;
#X obj 143 84 symbol \$1;
#X obj 91 11 loadbang;
#X obj 91 40 t b b;
#X obj 64 154 readsf~ 2;
#X msg 64 114 start;
#X obj 59 252 outlet~;
#X obj 119 252 outlet~;
#X msg 143 113 open \$1;
#X obj 69 -17 inlet;
#X text 120 -20 bang;
#X obj 110 200 *~;
#X obj 60 200 *~;
#X obj 200 170 inlet;
#X obj 243 115 print loading file for playback;
#X obj 200 200 / 127;
#X text 250 170 loudness;
#X connect 1 0 8 0;
#X connect 1 0 14 0;
#X connect 2 0 3 0;
#X connect 3 0 5 0;
#X connect 3 1 1 0;
#X connect 4 0 12 0;
#X connect 4 1 11 0;
#X connect 4 2 3 0;
#X connect 5 0 4 0;
#X connect 8 0 4 0;
#X connect 9 0 3 0;
#X connect 11 0 7 0;
#X connect 12 0 6 0;
#X connect 13 0 15 0;
#X connect 15 0 12 1;
#X connect 15 0 11 1;
